<?xml version="1.0" standalone="no"?>
<!DOCTYPE svg PUBLIC "-//W3C//DTD SVG 20010904//EN"
 "http://www.w3.org/TR/2001/REC-SVG-20010904/DTD/svg10.dtd">
<svg version="1.0" xmlns="http://www.w3.org/2000/svg"
 width="1080.000000pt" height="1080.000000pt" viewBox="0 0 1080.000000 1080.000000"
 preserveAspectRatio="xMidYMid meet">

<g transform="translate(0.000000,1080.000000) scale(0.100000,-0.100000)"
fill="#000000" stroke="none">
<path d="M5180 9024 c-19 -2 -84 -9 -145 -14 -815 -78 -1609 -456 -2199 -1046
-593 -593 -949 -1340 -1048 -2199 -16 -142 -16 -597 0 -740 98 -853 446 -1588
1035 -2184 535 -542 1214 -897 1958 -1025 240 -42 351 -51 629 -51 276 0 373
8 618 51 1309 224 2401 1163 2822 2424 83 250 140 509 172 785 16 142 16 598
0 740 -98 857 -456 1606 -1048 2199 -581 581 -1325 941 -2149 1042 -122 14
-567 27 -645 18z m578 -64 c717 -76 1368 -346 1921 -797 140 -114 385 -360
499 -501 452 -557 713 -1190 793 -1922 26 -240 14 -633 -27 -900 -98 -626
-365 -1221 -771 -1719 -111 -136 -358 -383 -494 -494 -498 -406 -1093 -673
-1719 -771 -354 -55 -756 -55 -1110 0 -537 84 -1050 292 -1507 610 -313 218
-649 554 -867 867 -627 901 -815 2029 -510 3061 177 597 472 1095 908 1532
437 436 935 731 1532 908 252 75 510 119 824 140 87 6 422 -3 528 -14z"/>
<path d="M5095 8749 c-655 -61 -1289 -318 -1810 -735 -141 -113 -386 -358
-499 -499 -724 -905 -937 -2094 -571 -3189 120 -362 323 -731 571 -1041 112
-140 357 -385 499 -499 752 -602 1702 -855 2650 -704 568 90 1121 336 1580
704 141 113 386 358 499 499 725 905 938 2100 570 3193 -123 366 -323 728
-570 1037 -113 141 -358 386 -499 499 -515 413 -1119 661 -1780 731 -151 16
-488 18 -640 4z m695 -234 c904 -115 1699 -600 2212 -1350 280 -408 456 -876
525 -1390 23 -180 23 -580 0 -760 -80 -600 -302 -1125 -675 -1595 -98 -122
-350 -374 -472 -472 -470 -373 -995 -595 -1595 -675 -180 -23 -580 -23 -760 0
-600 80 -1125 302 -1595 675 -122 98 -374 350 -472 472 -373 470 -595 995
-675 1595 -23 180 -23 580 0 760 80 600 302 1125 675 1595 98 122 350 374 472
472 401 318 854 532 1342 632 107 22 284 47 428 60 95 8 470 -3 590 -19z"/>
<path d="M4385 8320 c-284 -57 -496 -301 -512 -590 -7 -112 16 -219 69 -328
45 -92 178 -225 270 -270 247 -120 525 -84 718 95 85 79 133 150 172 256 59
161 47 339 -34 505 -47 97 -177 225 -278 274 -126 60 -282 82 -405 58z m126
-359 c20 -20 29 -39 29 -61 0 -43 -47 -90 -90 -90 -43 0 -90 47 -90 90 0 43
47 90 90 90 22 0 41 -9 61 -29z"/>
<path d="M5985 8100 c3 -5 2 -10 -4 -10 -5 0 -11 -12 -13 -27 -2 -21 -8 -27
-31 -28 -16 0 -32 -7 -37 -15 -15 -23 -12 -66 5 -80 11 -9 12 -16 3 -30 -9
-14 -9 -32 1 -73 14 -64 38 -84 158 -131 l72 -29 33 20 c26 15 32 25 30 44 -2
14 4 32 13 39 14 11 13 16 -6 49 -18 31 -19 34 -3 19 18 -16 19 -15 18 30 -2
84 -40 140 -121 178 -18 9 -30 20 -27 25 3 5 -4 9 -15 9 -11 0 -23 5 -26 10
-3 6 -17 10 -31 10 -14 0 -22 -4 -19 -10z"/>
<path d="M6985 7500 c-284 -57 -496 -301 -512 -590 -7 -112 16 -219 69 -328
45 -92 178 -225 270 -270 247 -120 525 -84 718 95 85 79 133 150 172 256 59
161 47 339 -34 505 -47 97 -177 225 -278 274 -126 60 -282 82 -405 58z m383
-226 c140 -58 174 -234 66 -336 -104 -97 -264 -64 -325 67 -74 159 97 337 259
269z m-444 -433 c26 -27 31 -39 31 -81 0 -43 -5 -54 -33 -82 -28 -28 -39 -33
-82 -33 -43 0 -54 5 -82 33 -28 28 -33 39 -33 81 0 52 25 92 70 112 37 16 96
3 129 -30z m416 -291 c11 -11 20 -31 20 -45 0 -14 -9 -34 -20 -45 -11 -11 -31
-20 -45 -20 -14 0 -34 9 -45 20 -11 11 -20 31 -20 45 0 14 9 34 20 45 11 11
31 20 45 20 14 0 34 -9 45 -20z"/>
<path d="M5213 7293 c-7 -2 -13 -14 -13 -25 0 -11 -10 -28 -22 -38 -21 -16
-22 -22 -11 -49 6 -17 7 -31 2 -31 -5 0 -9 6 -9 13 0 6 -7 -1 -15 -17 -20 -38
-19 -110 2 -144 9 -15 30 -41 46 -59 16 -17 26 -36 23 -42 -4 -6 -1 -11 7 -11
8 0 22 -9 32 -20 19 -21 45 -27 45 -9 0 5 4 8 9 5 4 -3 13 5 19 19 10 21 16
23 46 18 32 -5 37 -3 46 23 7 16 9 41 6 56 -3 15 -1 30 5 34 18 11 27 48 18
76 -4 15 -3 28 2 30 18 6 -18 54 -88 115 -59 51 -79 63 -105 62 -18 0 -39 -3
-45 -6z"/>
<path d="M3213 7040 c-13 -5 -23 -14 -23 -20 0 -5 -15 -10 -33 -10 -20 0 -42
-9 -57 -23 -14 -13 -29 -23 -35 -24 -18 -1 -35 -51 -46 -134 -12 -98 -7 -123
26 -145 20 -13 28 -14 39 -4 11 8 20 9 36 0 11 -6 25 -8 30 -5 6 3 18 8 27 10
66 16 82 23 115 45 31 21 41 37 60 97 12 39 25 70 28 68 3 -2 6 17 5 43 0 32
-4 46 -12 45 -7 -2 -13 1 -13 7 0 5 -12 7 -28 4 -23 -5 -29 -1 -39 25 -12 33
-35 39 -80 21z m-21 -342 c-7 -7 -12 -8 -12 -2 0 14 12 26 19 19 2 -3 -1 -11
-7 -17z"/>
<path d="M4100 6540 c0 -6 -4 -9 -9 -7 -5 1 -16 -7 -25 -18 -13 -17 -18 -18
-35 -7 -12 6 -27 12 -34 12 -19 0 -60 -58 -53 -76 3 -7 -6 -25 -19 -38 -21
-22 -31 -50 -26 -78 0 -5 -3 -8 -8 -8 -11 0 0 -44 19 -80 7 -12 32 -49 57 -81
42 -56 46 -59 89 -59 36 0 44 3 44 19 0 12 9 21 25 25 21 5 25 13 26 44 0 20
3 31 6 24 7 -18 53 33 54 61 0 12 4 31 8 41 9 24 -11 86 -41 127 -19 26 -20
31 -8 39 13 8 12 10 -3 10 -10 0 -22 11 -26 24 -10 23 -41 44 -41 26z"/>
<path d="M6173 6349 c-7 -7 -10 -24 -7 -38 5 -23 1 -28 -28 -36 -28 -8 -34
-15 -36 -43 -2 -21 3 -41 13 -52 11 -12 14 -26 10 -39 -4 -13 3 -41 19 -74 27
-58 50 -71 176 -100 61 -14 67 -13 95 4 22 14 29 25 28 45 -1 15 3 36 8 47 9
15 7 25 -10 48 -12 16 -16 26 -9 24 17 -7 17 57 1 76 -7 8 -16 27 -22 42 -6
15 -17 27 -25 27 -7 0 -19 6 -25 14 -7 8 -26 18 -42 21 -16 4 -35 12 -42 20
-19 19 -90 28 -104 14z"/>
<path d="M7581 6089 c-101 -50 -121 -69 -121 -113 0 -25 5 -35 20 -39 14 -3
20 -14 20 -31 0 -18 6 -26 18 -28 9 0 22 -2 29 -2 16 -2 29 -16 14 -16 -27 0
37 -50 79 -61 39 -10 54 -9 105 7 33 10 68 17 78 16 9 -1 17 3 17 9 0 5 14 15
30 20 35 13 37 27 9 63 -19 24 -19 27 -5 48 9 12 16 26 16 30 0 15 -56 58 -75
58 -11 0 -25 10 -30 22 -6 14 -24 26 -47 31 -21 5 -38 13 -38 18 0 18 -39 8
-119 -32z"/>
<path d="M3115 6020 c-284 -57 -496 -301 -512 -590 -7 -112 16 -219 69 -328
45 -92 178 -225 270 -270 247 -120 525 -84 718 95 85 79 133 150 172 256 59
161 47 339 -34 505 -47 97 -177 225 -278 274 -126 60 -282 82 -405 58z m153
-435 c160 -67 160 -283 0 -350 -92 -38 -195 5 -239 100 -44 94 -2 201 96 246
49 23 94 24 143 4z"/>
<path d="M5285 6020 c-284 -57 -496 -301 -512 -590 -7 -112 16 -219 69 -328
45 -92 178 -225 270 -270 247 -120 525 -84 718 95 85 79 133 150 172 256 59
161 47 339 -34 505 -47 97 -177 225 -278 274 -126 60 -282 82 -405 58z m-15
-240 c45 -23 80 -80 80 -130 0 -17 -9 -49 -20 -70 -23 -45 -80 -80 -130 -80
-50 0 -107 35 -130 80 -25 50 -25 90 0 140 37 73 124 99 200 60z m481 -419
c17 -18 29 -40 29 -56 0 -16 -12 -38 -29 -56 -18 -17 -40 -29 -56 -29 -16 0
-38 12 -56 29 -17 18 -29 40 -29 56 0 16 12 38 29 56 18 17 40 29 56 29 16 0
38 -12 56 -29z"/>
<path d="M7255 5590 c-284 -57 -496 -301 -512 -590 -7 -112 16 -219 69 -328
45 -92 178 -225 270 -270 247 -120 525 -84 718 95 85 79 133 150 172 256 59
161 47 339 -34 505 -47 97 -177 225 -278 274 -126 60 -282 82 -405 58z m-2
-174 c44 -18 95 -78 103 -121 11 -60 -4 -106 -50 -151 -46 -46 -91 -61 -153
-49 -50 9 -119 78 -128 128 -11 55 2 103 38 144 53 60 122 78 190 49z"/>
<path d="M6313 4413 c-12 -2 -27 -11 -33 -19 -7 -8 -25 -14 -41 -14 -15 0 -48
-14 -73 -31 -52 -34 -61 -58 -72 -181 -6 -74 -6 -77 20 -103 22 -22 30 -25 42
-14 11 9 20 9 40 0 22 -10 28 -8 51 15 14 14 23 19 20 11 -5 -13 1 -15 30 -10
41 7 113 51 113 69 0 7 7 25 15 41 8 15 17 41 20 56 3 15 9 26 13 23 4 -2 8
17 9 42 2 52 -7 62 -53 62 -27 0 -32 4 -37 30 -7 30 -13 33 -64 23z"/>
<path d="M5285 4140 c-284 -57 -496 -301 -512 -590 -7 -112 16 -219 69 -328
45 -92 178 -225 270 -270 247 -120 525 -84 718 95 85 79 133 150 172 256 59
161 47 339 -34 505 -47 97 -177 225 -278 274 -126 60 -282 82 -405 58z m305
-120 c40 -40 11 -110 -45 -110 -32 0 -65 33 -65 65 0 32 33 65 65 65 14 0 34
-9 45 -20z m-307 -574 c44 -18 95 -78 103 -121 3 -19 3 -52 -1 -72 -9 -50 -78
-119 -128 -128 -62 -12 -107 3 -153 49 -67 67 -72 154 -11 223 53 60 122 78
190 49z"/>
<path d="M4196 3766 c-14 -21 -14 -21 -47 -2 l-32 19 -24 -27 c-13 -15 -23
-37 -23 -50 0 -14 -9 -27 -24 -34 -16 -7 -26 -22 -30 -46 -4 -20 -12 -36 -18
-36 -18 0 0 -59 43 -136 51 -94 62 -104 109 -104 29 0 39 4 43 20 3 12 14 20
25 20 21 0 31 17 33 53 0 12 3 17 5 10 9 -22 62 43 69 85 6 40 -8 116 -27 139
-5 7 -7 21 -3 33 3 11 2 20 -4 20 -5 0 -16 12 -23 28 -16 33 -52 38 -72 8z"/>
<path d="M7563 3760 c-13 -5 -23 -14 -23 -20 0 -5 -15 -10 -33 -10 -20 0 -42
-9 -57 -23 -14 -13 -29 -23 -35 -24 -18 -1 -35 -51 -46 -134 -12 -98 -7 -123
26 -145 20 -13 28 -14 39 -4 11 8 20 9 36 0 11 -6 25 -8 30 -5 6 3 18 8 27 10
66 16 82 23 115 45 31 21 41 37 60 97 12 39 25 70 28 68 3 -2 6 17 5 43 0 32
-4 46 -12 45 -7 -2 -13 1 -13 7 0 5 -12 7 -28 4 -23 -5 -29 -1 -39 25 -12 33
-35 39 -80 21z m-21 -342 c-7 -7 -12 -8 -12 -2 0 14 12 26 19 19 2 -3 -1 -11
-7 -17z"/>
</g>
</svg>
